<?xml version="1.0" encoding="UTF-8" standalone="no"?>
<!-- Created with Inkscape (http://www.inkscape.org/) -->

<svg
   xmlns:dc="http://purl.org/dc/elements/1.1/"
   xmlns:cc="http://creativecommons.org/ns#"
   xmlns:rdf="http://www.w3.org/1999/02/22-rdf-syntax-ns#"
   xmlns:svg="http://www.w3.org/2000/svg"
   xmlns="http://www.w3.org/2000/svg"
   xmlns:xlink="http://www.w3.org/1999/xlink"
   xmlns:sodipodi="http://sodipodi.sourceforge.net/DTD/sodipodi-0.dtd"
   xmlns:inkscape="http://www.inkscape.org/namespaces/inkscape"
   width="496.28287mm"
   height="339.56314mm"
   viewBox="0 0 496.28286 339.56314"
   version="1.1"
   id="svg7517"
   inkscape:version="0.92.1 r15371"
   sodipodi:docname="goodbye.svg">
  <defs
     id="defs7511">
    <filter
       inkscape:collect="always"
       style="color-interpolation-filters:sRGB"
       id="filter6861-3-8-0-84-7"
       x="-0.47874194"
       width="1.9574839"
       y="-2.7338681"
       height="6.4677362">
      <feGaussianBlur
         inkscape:collect="always"
         stdDeviation="64.786928"
         id="feGaussianBlur6863-5-8-3-2-8" />
    </filter>
    <linearGradient
       inkscape:collect="always"
       xlink:href="#linearGradient14008"
       id="linearGradient7480"
       gradientUnits="userSpaceOnUse"
       gradientTransform="matrix(1.3940848,0,0,1.1885361,1606.5945,-4774.1192)"
       x1="-1249.8466"
       y1="2647.1897"
       x2="-1245.6162"
       y2="2621.2646" />
    <linearGradient
       inkscape:collect="always"
       id="linearGradient14008">
      <stop
         style="stop-color:#daa6a6;stop-opacity:1"
         offset="0"
         id="stop14004" />
      <stop
         style="stop-color:#daa6a6;stop-opacity:1"
         offset="1"
         id="stop14006" />
    </linearGradient>
  </defs>
  <sodipodi:namedview
     id="base"
     pagecolor="#ffffff"
     bordercolor="#666666"
     borderopacity="1.0"
     inkscape:pageopacity="0.0"
     inkscape:pageshadow="2"
     inkscape:zoom="0.30831319"
     inkscape:cx="1656.198"
     inkscape:cy="754.55453"
     inkscape:document-units="mm"
     inkscape:current-layer="g22351-0-9-8"
     showgrid="false"
     fit-margin-top="0"
     fit-margin-left="0"
     fit-margin-right="0"
     fit-margin-bottom="0"
     inkscape:window-width="1920"
     inkscape:window-height="1027"
     inkscape:window-x="-8"
     inkscape:window-y="-8"
     inkscape:window-maximized="1"
     inkscape:snap-bbox="true"
     inkscape:bbox-paths="true"
     inkscape:bbox-nodes="true"
     inkscape:snap-bbox-edge-midpoints="true"
     inkscape:snap-bbox-midpoints="true"
     inkscape:object-paths="true"
     inkscape:snap-intersection-paths="true"
     inkscape:snap-smooth-nodes="true"
     inkscape:snap-midpoints="true"
     inkscape:snap-object-midpoints="true"
     inkscape:snap-center="true"
     inkscape:snap-text-baseline="true"
     inkscape:snap-page="true"
     inkscape:snap-global="true" />
  <metadata
     id="metadata7514">
    <rdf:RDF>
      <cc:Work
         rdf:about="">
        <dc:format>image/svg+xml</dc:format>
        <dc:type
           rdf:resource="http://purl.org/dc/dcmitype/StillImage" />
        <dc:title></dc:title>
      </cc:Work>
    </rdf:RDF>
  </metadata>
  <g
     inkscape:label="Layer 1"
     inkscape:groupmode="layer"
     id="layer1"
     transform="translate(529.53406,342.13177)">
    <g
       id="g23322-7-8"
       transform="matrix(-1,0,0,1,2265.189,1837.3087)">
      <g
         id="g22351-0-9-8"
         transform="translate(2679.1638,-354.41156)">
        <ellipse
           style="opacity:1;fill:#000000;fill-opacity:1;stroke:none;stroke-width:16.99192429;stroke-linecap:round;stroke-linejoin:round;stroke-miterlimit:4;stroke-dasharray:none;stroke-dashoffset:0;stroke-opacity:1;filter:url(#filter6861-3-8-0-84-7)"
           id="path6689-2-68-9-76-7"
           cx="-2301.9246"
           cy="1151.2292"
           rx="162.39294"
           ry="28.437477"
           transform="matrix(0.26370732,0,0,0.26370732,471.50068,-1837.556)" />
        <path
           style="opacity:1;fill:#daa6a6;fill-opacity:1;stroke:none;stroke-width:0.33987638;stroke-linecap:round;stroke-linejoin:round;stroke-miterlimit:4;stroke-dasharray:none;stroke-dashoffset:0;stroke-opacity:1"
           d="m -158.58134,-1547.289 c -5.7134,0.4704 -16.8142,2.5725 -16.9058,-3.1596 -0.092,-5.8311 11.2679,-4.1536 17.0865,-3.761 3.3236,0.2243 9.3862,0.1084 9.3824,3.4401 -0.013,3.3921 -6.1822,3.2022 -9.5631,3.4805 z"
           id="rect5604-5-1-9-9-0-0-9-2-04-5-9-0"
           inkscape:connector-curvature="0"
           sodipodi:nodetypes="aaaaa"
           inkscape:transform-center-x="-23.597711"
           inkscape:transform-center-y="-3.3258581" />
        <path
           style="opacity:1;fill:#daa6a6;fill-opacity:1;stroke:none;stroke-width:0.33987638;stroke-linecap:round;stroke-linejoin:round;stroke-miterlimit:4;stroke-dasharray:none;stroke-dashoffset:0;stroke-opacity:1"
           d="m -106.70684,-1558.3836 c 3.2283,4.7613 10.183195,13.3797 5.3016,16.4229 -4.9967,3.1151 -9.389,-7.4068 -12.7041,-12.2729 -3.1811,-4.6697 -11.0422,-12.2975 -6.4983,-15.6554 4.8373,-3.5749 10.5253,6.527 13.9008,11.5054 z"
           id="rect5604-5-1-9-9-4-3-6-1-7"
           inkscape:connector-curvature="0"
           sodipodi:nodetypes="aaaaa" />
        <path
           style="opacity:1;fill:#2e8989;fill-opacity:1;stroke:none;stroke-width:0.82583958;stroke-linecap:round;stroke-linejoin:round;stroke-miterlimit:4;stroke-dasharray:none;stroke-dashoffset:0;stroke-opacity:1"
           d="m -149.17041,-1575.0409 c 5.4795,-7.1752 20.04806,-8.5187 26.94999,-2.6987 10.28472,8.6728 11.45136,29.9447 2.81705,40.2619 -4.95623,5.9221 -16.87923,7.1446 -23.03407,2.4805 -10.78777,-8.1749 -14.94799,-29.2866 -6.73297,-40.0437 z"
           id="rect5604-5-1-9-5-7-3-3-9-2"
           inkscape:connector-curvature="0"
           sodipodi:nodetypes="aaaaa" />
        <path
           style="opacity:1;fill:url(#linearGradient7480);fill-opacity:1;stroke:none;stroke-width:0.93760359;stroke-linecap:round;stroke-linejoin:round;stroke-miterlimit:4;stroke-dasharray:none;stroke-dashoffset:0;stroke-opacity:1"
           d="m -113.5188,-1649.8312 c -13.2847,-7.3272 -34.2764,1.6036 -44.965,12.9649 -11.0846,11.7821 -20.0474,34.2478 -10.5778,47.3629 12.3736,17.1373 48.2401,21.3916 63.0934,6.3526 15.718899,-15.915 14.440699,-54.5512 -7.5506,-66.6804 z"
           id="rect5604-6-9-1-0-6-91-21-11-1-4"
           inkscape:connector-curvature="0"
           sodipodi:nodetypes="aaaaa" />
        <circle
           style="opacity:1;fill:#000000;fill-opacity:1;stroke:none;stroke-width:0.56210691;stroke-linecap:round;stroke-linejoin:round;stroke-miterlimit:4;stroke-dasharray:none;stroke-dashoffset:0;stroke-opacity:1"
           id="path5682-8-7-4-1-3-9"
           transform="matrix(-0.25881906,-0.96592582,-0.96592582,0.25881906,0,0)"
           cx="1609.6321"
           cy="-271.93628"
           r="4.3416252" />
        <circle
           style="opacity:1;fill:#000000;fill-opacity:1;stroke:none;stroke-width:0.56210679;stroke-linecap:round;stroke-linejoin:round;stroke-miterlimit:4;stroke-dasharray:none;stroke-dashoffset:0;stroke-opacity:1"
           id="path5682-6-4-1-2-2"
           transform="matrix(-0.25881906,-0.96592582,-0.96592582,0.25881906,0,0)"
           cx="1590.1327"
           cy="-311.06195"
           r="4.3416252" />
        <path
           style="opacity:1;fill:#daa6a6;fill-opacity:1;stroke:none;stroke-width:0.33987638;stroke-linecap:round;stroke-linejoin:round;stroke-miterlimit:4;stroke-dasharray:none;stroke-dashoffset:0;stroke-opacity:1"
           d="m -115.25304,-1549.9029 c 0.7164,5.7078 2.9943,16.4391 -2.7266,17.0409 -5.8797,0.6187 -5.6339,-10.6827 -6.3849,-16.547 -0.7269,-5.6749 -3.7157,-16.2127 1.9435,-17.0535 5.9495,-0.884 6.4184,10.5919 7.168,16.5596 z"
           id="rect5604-5-1-9-9-0-6-8-6-1-0"
           inkscape:connector-curvature="0"
           sodipodi:nodetypes="aaaaa" />
        <path
           style="opacity:1;fill:#daa6a6;fill-opacity:1;stroke:none;stroke-width:0.33987638;stroke-linecap:round;stroke-linejoin:round;stroke-miterlimit:4;stroke-dasharray:none;stroke-dashoffset:0;stroke-opacity:1"
           d="m -159.01024,-1535.0902 c -6.0159,0.1335 -17.4222,1.2051 -17.399,-4.8122 0.023,-5.7907 10.9901,-4.3433 16.7786,-4.5024 6.0546,-0.1665 17.4577,-2.3101 17.7817,3.7379 0.3215,6.0062 -11.1478,5.4434 -17.1613,5.5767 z"
           id="rect5604-5-1-9-9-0-0-2-6-2-1-2"
           inkscape:connector-curvature="0"
           sodipodi:nodetypes="aaaaa"
           inkscape:transform-center-x="-23.597749"
           inkscape:transform-center-y="-3.325852" />
        <path
           style="opacity:1;fill:#f2c200;fill-opacity:1;stroke:none;stroke-width:0.22394204;stroke-linecap:round;stroke-linejoin:round;stroke-miterlimit:4;stroke-dasharray:none;stroke-dashoffset:0;stroke-opacity:1"
           d="m -126.1458,-1667.9827 c 0,0 23.70759,10.1984 23.10762,20.4711 -0.0589,1.0087 -0.36028,1.9908 -0.84129,2.9228 -0.0664,-0.072 -0.136,-0.1403 -0.20307,-0.2113 -0.002,0 -0.004,0.01 -0.007,0.014 -2.80633,5.5853 -12.006,-3.6915 -18.20458,-4.4969 -5.34535,-0.6943 -14.72305,4.9283 -16.17421,-0.2552 -0.0158,0.01 -0.0317,0.013 -0.0476,0.02 -2.34577,-4.639 -3.95221,-9.4201 -3.95221,-9.4201 0,0 7.36729,-0.8631 14.91332,-0.2517 0.0717,-0.016 0.1429,-0.031 0.21444,-0.047 0.36613,-4.6494 1.19425,-8.7462 1.19425,-8.7462 z"
           id="rect5604-5-1-9-9-4-9-5-1-1-0-3-4-0-0"
           inkscape:connector-curvature="0" />
      </g>
      <path
         sodipodi:nodetypes="aaaaa"
         inkscape:connector-curvature="0"
         id="rect5604-6-9-1-0-6-91-2-7-9-6-4-5"
         d="m 2539.0888,-1960.4646 c -7.9319,-2.071 -21.3242,-11.6386 -24.18,-0.8251 -3.2165,12.1787 11.8801,22.9701 20.8287,25.1805 8.7838,2.1701 25.1344,-0.7009 25.0324,-13.4835 -0.088,-10.9795 -14.1489,-8.9052 -21.6811,-10.8719 z"
         style="opacity:1;fill:#bd6161;fill-opacity:1;stroke:none;stroke-width:1.01984596;stroke-linecap:round;stroke-linejoin:round;stroke-miterlimit:4;stroke-dasharray:none;stroke-dashoffset:0;stroke-opacity:1" />
      <path
         sodipodi:nodetypes="aaaaa"
         inkscape:connector-curvature="0"
         id="rect5604-6-9-1-0-6-91-2-7-89-4-7-6-0"
         d="m 2537.8175,-1954.5696 c -5.6471,-1.2206 -14.9592,-10.8982 -16.983,-3.2393 -2.1732,8.2242 9.1973,13.4381 15.2631,14.7296 6.0258,1.2829 17.8701,1.0339 17.4725,-7.6845 -0.3476,-7.6205 -10.4872,-2.668 -15.7527,-3.8055 z"
         style="opacity:1;fill:#ab4747;fill-opacity:1;stroke:none;stroke-width:0.59072506;stroke-linecap:round;stroke-linejoin:round;stroke-miterlimit:4;stroke-dasharray:none;stroke-dashoffset:0;stroke-opacity:1" />
    </g>
    <path
       style="opacity:1;fill:#e6e6e6;fill-opacity:1;stroke:none;stroke-width:32.56502151;stroke-linecap:round;stroke-linejoin:round;stroke-miterlimit:4;stroke-dasharray:none;stroke-dashoffset:0;stroke-opacity:1"
       d="m -556.59375,-593.55859 c -41.87717,0 -75.58984,33.71463 -75.58984,75.59179 v 333.10352 c 0,41.87716 33.71267,75.5918 75.58984,75.5918 h 824.45703 l 37.81055,65.486324 37.80859,-65.486324 h 824.45708 c 41.8771,0 75.5917,-33.71464 75.5917,-75.5918 V -517.9668 c 1e-4,-41.87716 -33.7146,-75.59179 -75.5917,-75.59179 z"
       transform="matrix(0.26458333,0,0,0.26458333,-362.26882,-185.08606)"
       id="rect8118"
       inkscape:connector-curvature="0" />
  </g>
</svg>
