<?xml version="1.0" encoding="UTF-8" standalone="no"?>
<!-- Created with Inkscape (http://www.inkscape.org/) -->

<svg
   xmlns:dc="http://purl.org/dc/elements/1.1/"
   xmlns:cc="http://creativecommons.org/ns#"
   xmlns:rdf="http://www.w3.org/1999/02/22-rdf-syntax-ns#"
   xmlns:svg="http://www.w3.org/2000/svg"
   xmlns="http://www.w3.org/2000/svg"
   xmlns:sodipodi="http://sodipodi.sourceforge.net/DTD/sodipodi-0.dtd"
   xmlns:inkscape="http://www.inkscape.org/namespaces/inkscape"
   width="32.977497mm"
   height="10.30259mm"
   viewBox="0 0 32.890798 10.30259"
   version="1.1"
   id="svg8548"
   inkscape:version="0.92.1 r15371"
   sodipodi:docname="logoink.svg"
   style="enable-background:new"
   inkscape:export-filename="C:\Users\DFCTech\Desktop\objective_logo_full_svg.png"
   inkscape:export-xdpi="300"
   inkscape:export-ydpi="300">
  <defs
     id="defs8542">
    <filter
       inkscape:collect="always"
       style="color-interpolation-filters:sRGB"
       id="filter4858">
      <feBlend
         inkscape:collect="always"
         mode="lighten"
         in2="BackgroundImage"
         id="feBlend4860" />
    </filter>
  </defs>
  <sodipodi:namedview
     id="base"
     pagecolor="#ffffff"
     bordercolor="#666666"
     borderopacity="1.0"
     inkscape:pageopacity="0.0"
     inkscape:pageshadow="2"
     inkscape:zoom="5.6"
     inkscape:cx="61.358414"
     inkscape:cy="0.83655599"
     inkscape:document-units="mm"
     inkscape:current-layer="layer1"
     showgrid="false"
     inkscape:window-width="1920"
     inkscape:window-height="1027"
     inkscape:window-x="-8"
     inkscape:window-y="-8"
     inkscape:window-maximized="1"
     fit-margin-top="0"
     fit-margin-left="0"
     fit-margin-right="0"
     fit-margin-bottom="0"
     inkscape:snap-bbox="true"
     inkscape:bbox-paths="true"
     inkscape:bbox-nodes="true"
     inkscape:snap-bbox-edge-midpoints="true"
     inkscape:snap-bbox-midpoints="true"
     inkscape:object-paths="true"
     inkscape:snap-intersection-paths="true"
     inkscape:snap-smooth-nodes="true"
     inkscape:snap-midpoints="true"
     inkscape:snap-object-midpoints="true"
     inkscape:snap-center="true"
     inkscape:snap-text-baseline="true"
     inkscape:snap-page="true"
     viewbox-width="36.34" />
  <metadata
     id="metadata8545">
    <rdf:RDF>
      <cc:Work
         rdf:about="">
        <dc:format>image/svg+xml</dc:format>
        <dc:type
           rdf:resource="http://purl.org/dc/dcmitype/StillImage" />
        <dc:title></dc:title>
      </cc:Work>
    </rdf:RDF>
  </metadata>
  <g
     inkscape:label="Layer 1"
     inkscape:groupmode="layer"
     id="layer1"
     transform="translate(-60.630575,-131.67998)">
    <path
       style="display:inline;opacity:1;fill:#b65353;fill-opacity:1;stroke:none;stroke-width:0;stroke-linecap:square;stroke-linejoin:bevel;stroke-miterlimit:4;stroke-dasharray:none;stroke-dashoffset:0;stroke-opacity:1;filter:url(#filter4858)"
       d="m 506.16211,869.9082 -5.17969,5.18164 3,3.00196 5.22852,-5.22852 a 14.877654,14.942008 0 0 1 -3.04883,-2.95508 z"
       transform="matrix(0.26458333,0,0,0.26458333,-71.968916,-92.150691)"
       id="rect8340-9"
       inkscape:connector-curvature="0" />
    <ellipse
       style="opacity:1;fill:#53a8a8;fill-opacity:1;stroke:none;stroke-width:0;stroke-linecap:square;stroke-linejoin:bevel;stroke-miterlimit:4;stroke-dasharray:none;stroke-dashoffset:0;stroke-opacity:1;filter:url(#filter4858)"
       id="path8273"
       cx="65.042198"
       cy="135.63338"
       rx="3.9363792"
       ry="3.9534063" />
    <rect
       style="opacity:1;fill:#53a8a8;fill-opacity:1;stroke:none;stroke-width:0;stroke-linecap:square;stroke-linejoin:bevel;stroke-miterlimit:4;stroke-dasharray:none;stroke-dashoffset:0;stroke-opacity:1;filter:url(#filter4858)"
       id="rect8275"
       width="1.7099676"
       height="6.8398752"
       x="-55.961475"
       y="267.97507"
       transform="rotate(-45,-153.38503,56.326962)" />
    <circle
       style="opacity:1;fill:#b6a8a8;fill-opacity:1;stroke:none;stroke-width:0;stroke-linecap:square;stroke-linejoin:bevel;stroke-miterlimit:4;stroke-dasharray:none;stroke-dashoffset:0;stroke-opacity:1;filter:url(#filter4858)"
       id="path8390"
       cx="65.042198"
       cy="135.63338"
       r="2.2080665" />
    <circle
       style="opacity:1;fill:#ffffff;fill-opacity:1;stroke:none;stroke-width:0;stroke-linecap:square;stroke-linejoin:bevel;stroke-miterlimit:4;stroke-dasharray:none;stroke-dashoffset:0;stroke-opacity:1;filter:url(#filter4858)"
       id="path8367"
       cx="65.042198"
       cy="135.63338"
       r="0.98202282" />
    <path
       style="display:inline;opacity:1;fill:#b6a8a8;fill-opacity:1;stroke:none;stroke-width:0;stroke-linecap:square;stroke-linejoin:bevel;stroke-miterlimit:4;stroke-dasharray:none;stroke-dashoffset:0;stroke-opacity:1;filter:url(#filter4858)"
       d="m 520.91016,856.05469 -6.81641,6.8164 a 14.877654,14.942008 0 0 0 3.05078,2.95313 l 6.76563,-6.76758 z"
       transform="matrix(0.26458333,0,0,0.26458333,-74.089665,-90.246002)"
       id="path8273-4"
       inkscape:connector-curvature="0" />
    <path
       inkscape:connector-curvature="0"
       id="path9127"
       style="font-style:normal;font-variant:normal;font-weight:normal;font-stretch:normal;font-size:6.13932943px;line-height:1.25;font-family:'Segoe UI Symbol';-inkscape-font-specification:'Segoe UI Symbol';letter-spacing:0px;word-spacing:0px;fill:#53a8a8;fill-opacity:1;stroke:none;stroke-width:0.26458332;filter:url(#filter4858)"
       d="m 71.118406,137.50336 q -0.680482,0 -1.088172,-0.42868 -0.404692,-0.43167 -0.404692,-1.14213 0,-0.77341 0.422678,-1.20808 0.422679,-0.43467 1.142132,-0.43467 0.686477,0 1.070185,0.42268 0.386706,0.42268 0.386706,1.17211 0,0.73444 -0.416683,1.1781 -0.413685,0.44067 -1.112154,0.44067 z m 0.03597,-2.79987 q -0.47364,0 -0.74943,0.32375 -0.27579,0.32076 -0.27579,0.88733 0,0.54558 0.278788,0.86034 0.278788,0.31476 0.746432,0.31476 0.476637,0 0.731443,-0.30876 0.257804,-0.30877 0.257804,-0.87834 0,-0.57556 -0.257804,-0.88732 -0.254806,-0.31176 -0.731443,-0.31176 z" />
    <path
       inkscape:connector-curvature="0"
       id="path9129"
       style="font-style:normal;font-variant:normal;font-weight:normal;font-stretch:normal;font-size:6.13932943px;line-height:1.25;font-family:'Segoe UI Symbol';-inkscape-font-specification:'Segoe UI Symbol';letter-spacing:0px;word-spacing:0px;fill:#53a8a8;fill-opacity:1;stroke:none;stroke-width:0.26458332;filter:url(#filter4858)"
       d="m 73.936263,136.98775 h -0.01199 v 0.44366 h -0.491626 v -4.54454 h 0.491626 v 2.01447 h 0.01199 q 0.362724,-0.61154 1.061192,-0.61154 0.590551,0 0.923298,0.41369 0.335744,0.41068 0.335744,1.10316 0,0.77041 -0.374715,1.23506 -0.374714,0.46165 -1.02522,0.46165 -0.608537,0 -0.920299,-0.51561 z m -0.01199,-1.23806 v 0.42868 q 0,0.38071 0.245813,0.6475 0.24881,0.2638 0.629521,0.2638 0.44666,0 0.698468,-0.34174 0.254807,-0.34174 0.254807,-0.95028 0,-0.51261 -0.23682,-0.80338 -0.23682,-0.29078 -0.641512,-0.29078 -0.428674,0 -0.689476,0.29977 -0.260801,0.29677 -0.260801,0.74643 z" />
    <path
       inkscape:connector-curvature="0"
       id="path9131"
       style="font-style:normal;font-variant:normal;font-weight:normal;font-stretch:normal;font-size:6.13932943px;line-height:1.25;font-family:'Segoe UI Symbol';-inkscape-font-specification:'Segoe UI Symbol';letter-spacing:0px;word-spacing:0px;fill:#53a8a8;fill-opacity:1;stroke:none;stroke-width:0.26458332;filter:url(#filter4858)"
       d="m 77.533526,137.30251 q 0,0.75543 -0.305768,1.16311 -0.302769,0.41069 -0.869338,0.41069 -0.209841,0 -0.40769,-0.0959 v -0.45866 q 0.221831,0.1349 0.41968,0.1349 0.67149,0 0.67149,-1.07318 v -3.0217 h 0.491626 z m -0.239818,-3.72017 q -0.1319,0 -0.224829,-0.0899 -0.09293,-0.0899 -0.09293,-0.22783 0,-0.13789 0.09293,-0.22782 0.09293,-0.0929 0.224829,-0.0929 0.134897,0 0.227827,0.0929 0.09593,0.0899 0.09593,0.22782 0,0.1319 -0.09593,0.22483 -0.09293,0.0929 -0.227827,0.0929 z" />
    <path
       inkscape:connector-curvature="0"
       id="path9133"
       style="font-style:normal;font-variant:normal;font-weight:normal;font-stretch:normal;font-size:6.13932943px;line-height:1.25;font-family:'Segoe UI Symbol';-inkscape-font-specification:'Segoe UI Symbol';letter-spacing:0px;word-spacing:0px;fill:#53a8a8;fill-opacity:1;stroke:none;stroke-width:0.26458332;filter:url(#filter4858)"
       d="M 80.995892,136.01949 H 78.82854 q 0.01199,0.51261 0.275791,0.79139 0.263799,0.27879 0.725448,0.27879 0.518605,0 0.953274,-0.34174 v 0.46165 q -0.404692,0.29378 -1.070185,0.29378 -0.650506,0 -1.022223,-0.41669 -0.371717,-0.41968 -0.371717,-1.1781 0,-0.71645 0.404692,-1.16611 0.40769,-0.45266 1.010232,-0.45266 0.602541,0 0.93229,0.38971 0.32975,0.3897 0.32975,1.08217 z m -0.503617,-0.41669 q -0.003,-0.42567 -0.206843,-0.66249 -0.200847,-0.23682 -0.560574,-0.23682 -0.347735,0 -0.59055,0.24881 -0.242816,0.24881 -0.299772,0.6505 z" />
    <path
       inkscape:connector-curvature="0"
       id="path9135"
       style="font-style:normal;font-variant:normal;font-weight:normal;font-stretch:normal;font-size:6.13932943px;line-height:1.25;font-family:'Segoe UI Symbol';-inkscape-font-specification:'Segoe UI Symbol';letter-spacing:0px;word-spacing:0px;fill:#53a8a8;fill-opacity:1;stroke:none;stroke-width:0.26458332;filter:url(#filter4858)"
       d="m 83.834732,137.29052 q -0.353731,0.21284 -0.839362,0.21284 -0.6565,0 -1.061192,-0.42568 -0.401695,-0.42867 -0.401695,-1.10916 0,-0.75842 0.43467,-1.21707 0.434669,-0.46165 1.160117,-0.46165 0.404692,0 0.713457,0.14989 v 0.50361 q -0.34174,-0.23981 -0.731443,-0.23981 -0.470642,0 -0.773412,0.33874 -0.299772,0.33574 -0.299772,0.88433 0,0.53959 0.281786,0.85135 0.284783,0.31176 0.761421,0.31176 0.401694,0 0.755425,-0.2668 z" />
    <path
       inkscape:connector-curvature="0"
       id="path9137"
       style="font-style:normal;font-variant:normal;font-weight:normal;font-stretch:normal;font-size:6.13932943px;line-height:1.25;font-family:'Segoe UI Symbol';-inkscape-font-specification:'Segoe UI Symbol';letter-spacing:0px;word-spacing:0px;fill:#53a8a8;fill-opacity:1;stroke:none;stroke-width:0.26458332;filter:url(#filter4858)"
       d="m 86.008078,137.40143 q -0.173867,0.0959 -0.458651,0.0959 -0.806386,0 -0.806386,-0.89931 v -1.81662 h -0.527599 v -0.41968 h 0.527599 v -0.74943 l 0.491626,-0.15888 v 0.90831 h 0.773411 v 0.41968 h -0.773411 v 1.72968 q 0,0.30877 0.10492,0.44067 0.10492,0.1319 0.347735,0.1319 0.185859,0 0.320756,-0.10193 z" />
    <path
       inkscape:connector-curvature="0"
       id="path9139"
       style="font-style:normal;font-variant:normal;font-weight:normal;font-stretch:normal;font-size:6.13932943px;line-height:1.25;font-family:'Segoe UI Symbol';-inkscape-font-specification:'Segoe UI Symbol';letter-spacing:0px;word-spacing:0px;fill:#53a8a8;fill-opacity:1;stroke:none;stroke-width:0.26458332;filter:url(#filter4858)"
       d="m 86.922383,133.58234 q -0.1319,0 -0.224829,-0.0899 -0.09293,-0.0899 -0.09293,-0.22783 0,-0.13789 0.09293,-0.22782 0.09293,-0.0929 0.224829,-0.0929 0.134897,0 0.227826,0.0929 0.09593,0.0899 0.09593,0.22782 0,0.1319 -0.09593,0.22483 -0.09293,0.0929 -0.227826,0.0929 z m 0.239817,3.84907 h -0.491626 v -3.06966 H 87.1622 Z" />
    <path
       inkscape:connector-curvature="0"
       id="path9141"
       style="font-style:normal;font-variant:normal;font-weight:normal;font-stretch:normal;font-size:6.13932943px;line-height:1.25;font-family:'Segoe UI Symbol';-inkscape-font-specification:'Segoe UI Symbol';letter-spacing:0px;word-spacing:0px;fill:#53a8a8;fill-opacity:1;stroke:none;stroke-width:0.26458332;filter:url(#filter4858)"
       d="m 90.570608,134.36175 -1.223069,3.06966 h -0.482633 l -1.163115,-3.06966 h 0.539589 l 0.779407,2.2303 q 0.08693,0.24581 0.107918,0.42867 h 0.01199 q 0.02998,-0.23082 0.09593,-0.41668 l 0.81538,-2.24229 z" />
    <path
       inkscape:connector-curvature="0"
       id="path9143"
       style="font-style:normal;font-variant:normal;font-weight:normal;font-stretch:normal;font-size:6.13932943px;line-height:1.25;font-family:'Segoe UI Symbol';-inkscape-font-specification:'Segoe UI Symbol';letter-spacing:0px;word-spacing:0px;fill:#53a8a8;fill-opacity:1;stroke:none;stroke-width:0.26458332;filter:url(#filter4858)"
       d="m 93.562332,136.01949 h -2.167351 q 0.01199,0.51261 0.27579,0.79139 0.263799,0.27879 0.725448,0.27879 0.518606,0 0.953275,-0.34174 v 0.46165 q -0.404692,0.29378 -1.070186,0.29378 -0.650505,0 -1.022222,-0.41669 -0.371717,-0.41968 -0.371717,-1.1781 0,-0.71645 0.404692,-1.16611 0.40769,-0.45266 1.010231,-0.45266 0.602542,0 0.932291,0.38971 0.329749,0.3897 0.329749,1.08217 z m -0.503617,-0.41669 q -0.003,-0.42567 -0.206842,-0.66249 -0.200848,-0.23682 -0.560574,-0.23682 -0.347735,0 -0.590551,0.24881 -0.242815,0.24881 -0.299772,0.6505 z" />
    <path
       inkscape:connector-curvature="0"
       id="path9146"
       style="font-style:normal;font-variant:normal;font-weight:normal;font-stretch:normal;font-size:1.57692611px;line-height:1.25;font-family:'Segoe UI Symbol';-inkscape-font-specification:'Segoe UI Symbol';letter-spacing:0px;word-spacing:0px;fill:#7d6969;fill-opacity:1;stroke:none;stroke-width:0.26458332;filter:url(#filter4858)"
       d="m 78.653158,138.48592 -0.362662,0.91474 q -0.09702,0.24486 -0.272574,0.24486 -0.04928,0 -0.08239,-0.01 v -0.11319 q 0.04081,0.0139 0.07469,0.0139 0.09548,0 0.143217,-0.11396 l 0.06314,-0.14938 -0.307993,-0.78692 h 0.140137 l 0.213285,0.60675 q 0.0038,0.0115 0.01617,0.0601 h 0.0046 q 0.0038,-0.0185 0.0154,-0.0585 l 0.224065,-0.60829 z" />
    <path
       inkscape:connector-curvature="0"
       id="path9148"
       style="font-style:normal;font-variant:normal;font-weight:normal;font-stretch:normal;font-size:1.57692611px;line-height:1.25;font-family:'Segoe UI Symbol';-inkscape-font-specification:'Segoe UI Symbol';letter-spacing:0px;word-spacing:0px;fill:#7d6969;fill-opacity:1;stroke:none;stroke-width:0.26458332;filter:url(#filter4858)"
       d="m 79.118998,139.29286 q -0.174786,0 -0.279504,-0.1101 -0.103948,-0.11088 -0.103948,-0.29337 0,-0.19865 0.108568,-0.3103 0.108568,-0.11165 0.293364,-0.11165 0.176326,0 0.274884,0.10857 0.09933,0.10857 0.09933,0.30106 0,0.18865 -0.107028,0.30261 -0.106258,0.11318 -0.285664,0.11318 z m 0.0092,-0.71916 q -0.121658,0 -0.192496,0.0832 -0.07084,0.0824 -0.07084,0.22791 0,0.14014 0.07161,0.22099 0.07161,0.0808 0.191726,0.0808 0.122427,0 0.187876,-0.0793 0.06622,-0.0793 0.06622,-0.22561 0,-0.14783 -0.06622,-0.22791 -0.06545,-0.0801 -0.187876,-0.0801 z" />
    <path
       inkscape:connector-curvature="0"
       id="path9150"
       style="font-style:normal;font-variant:normal;font-weight:normal;font-stretch:normal;font-size:1.57692611px;line-height:1.25;font-family:'Segoe UI Symbol';-inkscape-font-specification:'Segoe UI Symbol';letter-spacing:0px;word-spacing:0px;fill:#7d6969;fill-opacity:1;stroke:none;stroke-width:0.26458332;filter:url(#filter4858)"
       d="m 80.350972,139.27438 h -0.126278 v -0.12473 h -0.0031 q -0.07854,0.14321 -0.243314,0.14321 -0.281814,0 -0.281814,-0.33571 v -0.47123 h 0.125507 v 0.45121 q 0,0.24948 0.190956,0.24948 0.0924,0 0.151687,-0.0678 0.06006,-0.0685 0.06006,-0.17864 v -0.45429 h 0.126278 z" />
    <path
       inkscape:connector-curvature="0"
       id="path9152"
       style="font-style:normal;font-variant:normal;font-weight:normal;font-stretch:normal;font-size:1.57692611px;line-height:1.25;font-family:'Segoe UI Symbol';-inkscape-font-specification:'Segoe UI Symbol';letter-spacing:0px;word-spacing:0px;fill:#7d6969;fill-opacity:1;stroke:none;stroke-width:0.26458332;filter:url(#filter4858)"
       d="m 81.017777,138.61374 q -0.03311,-0.0254 -0.09548,-0.0254 -0.08085,0 -0.135517,0.0762 -0.0539,0.0762 -0.0539,0.20789 v 0.40193 h -0.126277 v -0.78846 h 0.126277 v 0.16247 h 0.0031 q 0.02695,-0.0832 0.08239,-0.12936 0.05544,-0.047 0.123967,-0.047 0.04928,0 0.07546,0.0108 z" />
    <path
       inkscape:connector-curvature="0"
       id="path9154"
       style="font-style:normal;font-variant:normal;font-weight:normal;font-stretch:normal;font-size:1.57692611px;line-height:1.25;font-family:'Segoe UI Symbol';-inkscape-font-specification:'Segoe UI Symbol';letter-spacing:0px;word-spacing:0px;fill:#7d6969;fill-opacity:1;stroke:none;stroke-width:0.26458332;filter:url(#filter4858)"
       d="m 82.579304,138.48592 -0.236385,0.78846 h -0.130898 l -0.162466,-0.56439 q -0.0092,-0.0323 -0.01232,-0.0731 h -0.0031 q -0.0023,0.0277 -0.01617,0.0716 l -0.176327,0.56593 h -0.126277 l -0.238695,-0.78846 h 0.132437 l 0.163237,0.59289 q 0.0077,0.0269 0.01078,0.0708 h 0.0062 q 0.0023,-0.0339 0.01386,-0.0724 l 0.181716,-0.59135 h 0.115498 l 0.163236,0.59443 q 0.0077,0.0285 0.01155,0.0708 h 0.0062 q 0.0015,-0.03 0.01309,-0.0708 l 0.160156,-0.59443 z" />
    <path
       inkscape:connector-curvature="0"
       id="path9156"
       style="font-style:normal;font-variant:normal;font-weight:normal;font-stretch:normal;font-size:1.57692611px;line-height:1.25;font-family:'Segoe UI Symbol';-inkscape-font-specification:'Segoe UI Symbol';letter-spacing:0px;word-spacing:0px;fill:#7d6969;fill-opacity:1;stroke:none;stroke-width:0.26458332;filter:url(#filter4858)"
       d="m 83.359297,138.91172 h -0.556698 q 0.0031,0.13167 0.07084,0.20328 0.06776,0.0716 0.186336,0.0716 0.133207,0 0.244855,-0.0878 v 0.11857 q -0.103948,0.0755 -0.274884,0.0755 -0.167087,0 -0.262565,-0.10702 -0.09548,-0.1078 -0.09548,-0.30261 0,-0.18402 0.103947,-0.29952 0.104718,-0.11627 0.259485,-0.11627 0.154766,0 0.239465,0.1001 0.0847,0.1001 0.0847,0.27796 z m -0.129357,-0.10703 q -7.7e-4,-0.10933 -0.05313,-0.17016 -0.05159,-0.0608 -0.143987,-0.0608 -0.08932,0 -0.151687,0.0639 -0.06237,0.0639 -0.077,0.16708 z" />
    <path
       inkscape:connector-curvature="0"
       id="path9158"
       style="font-style:normal;font-variant:normal;font-weight:normal;font-stretch:normal;font-size:1.57692611px;line-height:1.25;font-family:'Segoe UI Symbol';-inkscape-font-specification:'Segoe UI Symbol';letter-spacing:0px;word-spacing:0px;fill:#7d6969;fill-opacity:1;stroke:none;stroke-width:0.26458332;filter:url(#filter4858)"
       d="m 83.68038,139.16043 h -0.0031 v 0.11395 h -0.126277 v -1.16729 H 83.6773 v 0.51743 h 0.0031 q 0.09317,-0.15708 0.272574,-0.15708 0.151687,0 0.237155,0.10626 0.08624,0.10549 0.08624,0.28335 0,0.19789 -0.09625,0.31724 -0.09625,0.11857 -0.263334,0.11857 -0.156307,0 -0.236385,-0.13243 z m -0.0031,-0.31801 v 0.11011 q 0,0.0978 0.06314,0.16632 0.06391,0.0678 0.161696,0.0678 0.114728,0 0.179406,-0.0878 0.06545,-0.0878 0.06545,-0.24409 0,-0.13166 -0.06083,-0.20635 -0.06083,-0.0747 -0.164776,-0.0747 -0.110108,0 -0.177097,0.077 -0.06699,0.0762 -0.06699,0.19172 z" />
    <path
       inkscape:connector-curvature="0"
       id="path9160"
       style="font-style:normal;font-variant:normal;font-weight:normal;font-stretch:normal;font-size:1.57692611px;line-height:1.25;font-family:'Segoe UI Symbol';-inkscape-font-specification:'Segoe UI Symbol';letter-spacing:0px;word-spacing:0px;fill:#7d6969;fill-opacity:1;stroke:none;stroke-width:0.26458332;filter:url(#filter4858)"
       d="m 84.59358,139.09883 -0.123197,0.37883 h -0.09009 l 0.09009,-0.37883 z" />
    <path
       inkscape:connector-curvature="0"
       id="path9162"
       style="font-style:normal;font-variant:normal;font-weight:normal;font-stretch:normal;font-size:1.57692611px;line-height:1.25;font-family:'Segoe UI Symbol';-inkscape-font-specification:'Segoe UI Symbol';letter-spacing:0px;word-spacing:0px;fill:#7d6969;fill-opacity:1;stroke:none;stroke-width:0.26458332;filter:url(#filter4858)"
       d="m 85.878682,138.48592 -0.362662,0.91474 q -0.09702,0.24486 -0.272574,0.24486 -0.04928,0 -0.08239,-0.01 v -0.11319 q 0.04081,0.0139 0.07469,0.0139 0.09548,0 0.143217,-0.11396 l 0.06314,-0.14938 -0.307994,-0.78692 h 0.140137 l 0.213286,0.60675 q 0.0038,0.0115 0.01617,0.0601 h 0.0046 q 0.0038,-0.0185 0.0154,-0.0585 l 0.224065,-0.60829 z" />
    <path
       inkscape:connector-curvature="0"
       id="path9164"
       style="font-style:normal;font-variant:normal;font-weight:normal;font-stretch:normal;font-size:1.57692611px;line-height:1.25;font-family:'Segoe UI Symbol';-inkscape-font-specification:'Segoe UI Symbol';letter-spacing:0px;word-spacing:0px;fill:#7d6969;fill-opacity:1;stroke:none;stroke-width:0.26458332;filter:url(#filter4858)"
       d="m 86.344523,139.29286 q -0.174786,0 -0.279504,-0.1101 -0.103948,-0.11088 -0.103948,-0.29337 0,-0.19865 0.108568,-0.3103 0.108567,-0.11165 0.293363,-0.11165 0.176327,0 0.274885,0.10857 0.09933,0.10857 0.09933,0.30106 0,0.18865 -0.107027,0.30261 -0.106258,0.11318 -0.285664,0.11318 z m 0.0092,-0.71916 q -0.121658,0 -0.192496,0.0832 -0.07084,0.0824 -0.07084,0.22791 0,0.14014 0.07161,0.22099 0.07161,0.0808 0.191726,0.0808 0.122427,0 0.187876,-0.0793 0.06622,-0.0793 0.06622,-0.22561 0,-0.14783 -0.06622,-0.22791 -0.06545,-0.0801 -0.187876,-0.0801 z" />
    <path
       inkscape:connector-curvature="0"
       id="path9166"
       style="font-style:normal;font-variant:normal;font-weight:normal;font-stretch:normal;font-size:1.57692611px;line-height:1.25;font-family:'Segoe UI Symbol';-inkscape-font-specification:'Segoe UI Symbol';letter-spacing:0px;word-spacing:0px;fill:#7d6969;fill-opacity:1;stroke:none;stroke-width:0.26458332;filter:url(#filter4858)"
       d="m 87.576496,139.27438 h -0.126277 v -0.12473 h -0.0031 q -0.07854,0.14321 -0.243315,0.14321 -0.281814,0 -0.281814,-0.33571 v -0.47123 h 0.125507 v 0.45121 q 0,0.24948 0.190956,0.24948 0.0924,0 0.151687,-0.0678 0.06006,-0.0685 0.06006,-0.17864 v -0.45429 h 0.126277 z" />
    <path
       inkscape:connector-curvature="0"
       id="path9168"
       style="font-style:normal;font-variant:normal;font-weight:normal;font-stretch:normal;font-size:1.57692611px;line-height:1.25;font-family:'Segoe UI Symbol';-inkscape-font-specification:'Segoe UI Symbol';letter-spacing:0px;word-spacing:0px;fill:#7d6969;fill-opacity:1;stroke:none;stroke-width:0.26458332;filter:url(#filter4858)"
       d="m 88.243302,138.61374 q -0.03311,-0.0254 -0.09548,-0.0254 -0.08085,0 -0.135517,0.0762 -0.0539,0.0762 -0.0539,0.20789 v 0.40193 h -0.126277 v -0.78846 h 0.126277 v 0.16247 h 0.0031 q 0.02695,-0.0832 0.08239,-0.12936 0.05544,-0.047 0.123967,-0.047 0.04928,0 0.07546,0.0108 z" />
    <path
       inkscape:connector-curvature="0"
       id="path9170"
       style="font-style:normal;font-variant:normal;font-weight:normal;font-stretch:normal;font-size:1.57692611px;line-height:1.25;font-family:'Segoe UI Symbol';-inkscape-font-specification:'Segoe UI Symbol';letter-spacing:0px;word-spacing:0px;fill:#7d6969;fill-opacity:1;stroke:none;stroke-width:0.26458332;filter:url(#filter4858)"
       d="m 89.348998,139.23819 q -0.09086,0.0547 -0.215596,0.0547 -0.168626,0 -0.272574,-0.10933 -0.103178,-0.11011 -0.103178,-0.2849 0,-0.1948 0.111648,-0.31261 0.111648,-0.11858 0.297984,-0.11858 0.103947,0 0.183256,0.0385 v 0.12936 q -0.08778,-0.0616 -0.187876,-0.0616 -0.120888,0 -0.198656,0.087 -0.077,0.0862 -0.077,0.22714 0,0.1386 0.07238,0.21868 0.07315,0.0801 0.195576,0.0801 0.103178,0 0.194036,-0.0685 z" />
    <path
       inkscape:connector-curvature="0"
       id="path9172"
       style="font-style:normal;font-variant:normal;font-weight:normal;font-stretch:normal;font-size:1.57692611px;line-height:1.25;font-family:'Segoe UI Symbol';-inkscape-font-specification:'Segoe UI Symbol';letter-spacing:0px;word-spacing:0px;fill:#7d6969;fill-opacity:1;stroke:none;stroke-width:0.26458332;filter:url(#filter4858)"
       d="m 90.195979,139.27438 h -0.126277 v -0.45429 q 0,-0.24639 -0.183256,-0.24639 -0.0924,0 -0.155537,0.0716 -0.06314,0.0708 -0.06314,0.18248 v 0.44659 h -0.126277 v -1.16729 h 0.126277 v 0.50973 h 0.0031 q 0.09086,-0.14938 0.258714,-0.14938 0.266414,0 0.266414,0.32108 z" />
    <path
       inkscape:connector-curvature="0"
       id="path9174"
       style="font-style:normal;font-variant:normal;font-weight:normal;font-stretch:normal;font-size:1.57692611px;line-height:1.25;font-family:'Segoe UI Symbol';-inkscape-font-specification:'Segoe UI Symbol';letter-spacing:0px;word-spacing:0px;fill:#7d6969;fill-opacity:1;stroke:none;stroke-width:0.26458332;filter:url(#filter4858)"
       d="m 90.764227,139.29286 q -0.174786,0 -0.279504,-0.1101 -0.103947,-0.11088 -0.103947,-0.29337 0,-0.19865 0.108567,-0.3103 0.108568,-0.11165 0.293364,-0.11165 0.176326,0 0.274884,0.10857 0.09933,0.10857 0.09933,0.30106 0,0.18865 -0.107028,0.30261 -0.106258,0.11318 -0.285664,0.11318 z m 0.0092,-0.71916 q -0.121657,0 -0.192496,0.0832 -0.07084,0.0824 -0.07084,0.22791 0,0.14014 0.07161,0.22099 0.07161,0.0808 0.191726,0.0808 0.122427,0 0.187876,-0.0793 0.06622,-0.0793 0.06622,-0.22561 0,-0.14783 -0.06622,-0.22791 -0.06545,-0.0801 -0.187876,-0.0801 z" />
    <path
       inkscape:connector-curvature="0"
       id="path9176"
       style="font-style:normal;font-variant:normal;font-weight:normal;font-stretch:normal;font-size:1.57692611px;line-height:1.25;font-family:'Segoe UI Symbol';-inkscape-font-specification:'Segoe UI Symbol';letter-spacing:0px;word-spacing:0px;fill:#7d6969;fill-opacity:1;stroke:none;stroke-width:0.26458332;filter:url(#filter4858)"
       d="m 91.423334,138.28572 q -0.03388,0 -0.05775,-0.0231 -0.02387,-0.0231 -0.02387,-0.0585 0,-0.0354 0.02387,-0.0585 0.02387,-0.0239 0.05775,-0.0239 0.03465,0 0.05852,0.0239 0.02464,0.0231 0.02464,0.0585 0,0.0339 -0.02464,0.0578 -0.02387,0.0239 -0.05852,0.0239 z m 0.0616,0.98866 h -0.126277 v -0.78846 h 0.126277 z" />
    <path
       inkscape:connector-curvature="0"
       id="path9178"
       style="font-style:normal;font-variant:normal;font-weight:normal;font-stretch:normal;font-size:1.57692611px;line-height:1.25;font-family:'Segoe UI Symbol';-inkscape-font-specification:'Segoe UI Symbol';letter-spacing:0px;word-spacing:0px;fill:#7d6969;fill-opacity:1;stroke:none;stroke-width:0.26458332;filter:url(#filter4858)"
       d="m 92.278015,139.23819 q -0.09086,0.0547 -0.215596,0.0547 -0.168626,0 -0.272574,-0.10933 -0.103177,-0.11011 -0.103177,-0.2849 0,-0.1948 0.111647,-0.31261 0.111648,-0.11858 0.297984,-0.11858 0.103947,0 0.183256,0.0385 v 0.12936 q -0.08778,-0.0616 -0.187876,-0.0616 -0.120888,0 -0.198656,0.087 -0.077,0.0862 -0.077,0.22714 0,0.1386 0.07238,0.21868 0.07315,0.0801 0.195576,0.0801 0.103178,0 0.194036,-0.0685 z" />
    <path
       inkscape:connector-curvature="0"
       id="path9180"
       style="font-style:normal;font-variant:normal;font-weight:normal;font-stretch:normal;font-size:1.57692611px;line-height:1.25;font-family:'Segoe UI Symbol';-inkscape-font-specification:'Segoe UI Symbol';letter-spacing:0px;word-spacing:0px;fill:#7d6969;fill-opacity:1;stroke:none;stroke-width:0.26458332;filter:url(#filter4858)"
       d="m 93.104207,138.91172 h -0.556698 q 0.0031,0.13167 0.07084,0.20328 0.06776,0.0716 0.186336,0.0716 0.133208,0 0.244855,-0.0878 v 0.11857 q -0.103948,0.0755 -0.274884,0.0755 -0.167086,0 -0.262564,-0.10702 -0.09548,-0.1078 -0.09548,-0.30261 0,-0.18402 0.103948,-0.29952 0.104717,-0.11627 0.259484,-0.11627 0.154767,0 0.239465,0.1001 0.0847,0.1001 0.0847,0.27796 z m -0.129357,-0.10703 q -7.7e-4,-0.10933 -0.05313,-0.17016 -0.05159,-0.0608 -0.143987,-0.0608 -0.08932,0 -0.151687,0.0639 -0.06237,0.0639 -0.077,0.16708 z" />
  </g>
</svg>
